<svg xmlns="http://www.w3.org/2000/svg" width="1318.37" height="428.62" viewBox="0 0 1318.37 428.62"><path d="M205,255q-8.15,19.17-29.33,29.91t-49.08,10.75q-35.43,0-59.53-12.49T28.17,250.32Q13.35,230,6.68,203.27A223.82,223.82,0,0,1,0,148.68Q0,115.57,9.87,88t26.72-47a119.73,119.73,0,0,1,39.49-30.2A112.41,112.41,0,0,1,124.87,0Q178.3,0,205,43V7.55h75.5V296.2q0,32.52-11,57.2a116.27,116.27,0,0,1-30.2,41.24A132.56,132.56,0,0,1,194,419.9a175.12,175.12,0,0,1-55.75,8.72,175.38,175.38,0,0,1-55.18-8.43q-25.56-8.42-43.85-23.81a109.78,109.78,0,0,1-28.75-37.46Q0,336.84,0,309H70.27q0,26.14,17.14,40.37T133,363.57q30.19,0,51.11-16.55T205,302Zm-62.15-18.58q27.88,0,46.17-21.2t18.3-57.79q0-91.75-64.47-91.76T78.41,152.75q0,38.33,18.29,61T142.87,236.38Z"/><path d="M499.47,293.29V253.22q-29.06,47.63-88.86,47.62a99,99,0,0,1-39.2-7.55,86.82,86.82,0,0,1-30.49-21.49,101.6,101.6,0,0,1-20-33.1q-7.28-19.17-7.26-43V7.55h75.5V184.11q0,53.43,48.21,53.43,29,0,43.85-18.3T496,172.49V7.55h74.92V293.29Z"/><path d="M939.12,293.29V120.22q0-26.13-12.2-42.4T894.4,61.56q-20.91,0-34.56,17.43T846.2,122.54V293.29H770.69V121.38q0-17.41-2.32-28.46T760.53,75.5a29.59,29.59,0,0,0-14.23-9,73.47,73.47,0,0,0-20.91-2.61q-45.89,0-45.88,55.75V293.29H604V7.55h70.86V49.37q14.5-28.45,34.84-38.92T758.5,0a130.09,130.09,0,0,1,25.84,2.32,63.17,63.17,0,0,1,20.33,7.84A82.9,82.9,0,0,1,821.8,24.39,164,164,0,0,1,838.06,45.3q11.63-23.8,30.79-34.56T915.31,0A104.65,104.65,0,0,1,954.8,7.26a89.21,89.21,0,0,1,30.78,20.33,96.29,96.29,0,0,1,27.3,67.66v198Z"/><path d="M1041.92,428.62V7.55h72.6l.58,34.85Q1141.23,0,1194.66,0a118.34,118.34,0,0,1,49.66,10.45,108.66,108.66,0,0,1,39.2,30.2q16.26,19.76,25.56,48.21t9.29,64.47q0,32.52-7.84,59.53t-22.94,46.75a103.69,103.69,0,0,1-36.88,30.49q-21.78,10.74-49.66,10.74-52.86,0-84.79-44.72v172.5Zm134.74-192.24q65,0,65-88.28,0-38.34-18-62.43t-46.46-24.11q-27.32,0-45.59,22.65t-18.3,59.24Q1113.35,236.39,1176.66,236.38Z"/><path d="M648.51,426.19V343.88h20.41v9.87a26.51,26.51,0,0,1,5.6-6.52,24,24,0,0,1,6-3.6,22.76,22.76,0,0,1,6.27-1.59,63.15,63.15,0,0,1,6.53-.33h2.84V364a36.07,36.07,0,0,0-6-.51q-19.92,0-19.91,19.91v42.83Z"/><path d="M717.1,390.72q.51,9.38,5.44,14.89a16.55,16.55,0,0,0,13,5.52,18.22,18.22,0,0,0,9.46-2.42,11,11,0,0,0,5.27-6.78h22.41q-3.84,12.72-13.38,19.58t-22.75,6.86q-41.16,0-41.16-44.84A52.05,52.05,0,0,1,698,366.3a37.18,37.18,0,0,1,7.78-13.22,33.57,33.57,0,0,1,12.46-8.45,45.52,45.52,0,0,1,16.9-2.92q19.07,0,28.86,12.21t9.79,36.8ZM751.4,377a23,23,0,0,0-1.59-7.94,16.69,16.69,0,0,0-3.77-5.69,14.93,14.93,0,0,0-5.35-3.35,18.21,18.21,0,0,0-6.19-1.08,15.46,15.46,0,0,0-11.29,4.76q-4.77,4.77-5.44,13.3Z"/><path d="M855.46,396.41a34.86,34.86,0,0,1-4.1,13,35.42,35.42,0,0,1-8.28,10A38.06,38.06,0,0,1,831.62,426a43.21,43.21,0,0,1-29.28-.42,31.34,31.34,0,0,1-12-8.36,38.89,38.89,0,0,1-7.78-13.89A61.16,61.16,0,0,1,779.84,384,58.82,58.82,0,0,1,782.6,365a34.22,34.22,0,0,1,7.78-13.13,31.41,31.41,0,0,1,12.13-7.62,47.27,47.27,0,0,1,15.8-2.5A46.59,46.59,0,0,1,833,343.88a34.12,34.12,0,0,1,11.55,6.36,30.47,30.47,0,0,1,7.78,10,35.17,35.17,0,0,1,3.34,13H833.71a15,15,0,0,0-5.11-9.95,15.65,15.65,0,0,0-10.45-3.6,18.12,18.12,0,0,0-6.53,1.17,12.93,12.93,0,0,0-5.27,3.94,20.64,20.64,0,0,0-3.59,7.36,40.65,40.65,0,0,0-1.34,11.29q0,13.55,4.85,20.08t11.21,6.52a17.17,17.17,0,0,0,10.87-3.51q4.51-3.53,5.19-10.21Z"/><path d="M914.51,426.19v-51q0-9.36-3.26-12.79t-10.79-3.43a15.88,15.88,0,0,0-7.2,1.59,15.61,15.61,0,0,0-5.35,4.35,19,19,0,0,0-3.26,6.35,26.65,26.65,0,0,0-1.09,7.78v47.18H861.81V313.77h21.75v40.82a16.72,16.72,0,0,1,3.6-5.11,22.88,22.88,0,0,1,5.6-4.09,32.57,32.57,0,0,1,7-2.68,31.61,31.61,0,0,1,8-1q12.7,0,20.66,6.94T936.43,368v58.22Z"/><path d="M992.64,372h20.24v23.42a40.24,40.24,0,0,1-1.92,12.46,29.37,29.37,0,0,1-6,10.54,28.66,28.66,0,0,1-10.37,7.28,38.07,38.07,0,0,1-15,2.68,39.64,39.64,0,0,1-15.39-2.68,29.05,29.05,0,0,1-10.46-7.19A27.55,27.55,0,0,1,947.8,408,43.24,43.24,0,0,1,946,395.24V321.63h21.41v22.25h45.51v15.39H967.37v33.8q0,7.86,2.93,12.12t9.62,4.27q6.52,0,9.62-4.18t3.1-11.88Z"/></svg>