<svg xmlns="http://www.w3.org/2000/svg" width="2090.8" height="363.3" viewBox="0 0 2090.8 363.3"><defs><style>.a{stroke:#000;stroke-miterlimit:10;}.b{isolation:isolate;}.c{fill:#fff;}.d{fill:#e30613;}</style></defs><rect class="a" x="0.5" y="0.5" width="2089.8" height="362.3"/><g class="b"><path class="c" d="M773.48,287.56a4.06,4.06,0,0,1-1,2.69,9.13,9.13,0,0,1-2.75,2.11,20.5,20.5,0,0,1-4,1.58,46.13,46.13,0,0,1-4.9,1.08c-1.74.28-3.53.49-5.36.62s-3.63.2-5.38.2c-3.82,0-7.32-.09-10.52-.26s-6.33-.44-9.39-.82v-4.54c3.29.48,6.56.83,9.81,1.08s6.49.37,9.7.37a41,41,0,0,0,10.38-1q3.36-1,3.36-2.76a2,2,0,0,0-.53-1.37,5,5,0,0,0-1.93-1.16,27.24,27.24,0,0,0-4.35-1.15c-2-.4-4.65-.85-8.05-1.36q-3.81-.57-7-1.29a34,34,0,0,1-5.58-1.72,11.76,11.76,0,0,1-3.7-2.32,4.28,4.28,0,0,1-1.35-3.15,4.39,4.39,0,0,1,1.1-2.61,9.8,9.8,0,0,1,3.73-2.64,30.34,30.34,0,0,1,7.12-2,65.88,65.88,0,0,1,11.22-.8q3.3,0,7.35.18c2.69.12,5.49.34,8.41.64v4.39c-3.07-.37-6-.65-8.72-.83s-5.13-.27-7.15-.27a55.88,55.88,0,0,0-6.15.28,21.47,21.47,0,0,0-4,.78,5.67,5.67,0,0,0-2.22,1.16,2,2,0,0,0-.67,1.44,1.92,1.92,0,0,0,.59,1.38,5.79,5.79,0,0,0,2.18,1.21,31.88,31.88,0,0,0,4.46,1.16q2.86.58,7.46,1.26c3.33.5,6.14,1,8.42,1.55a29.68,29.68,0,0,1,5.55,1.8,7.77,7.77,0,0,1,3,2.24A4.63,4.63,0,0,1,773.48,287.56Z" transform="translate(10.6)"/><path class="c" d="M811.23,270.94H794.57v-4.08H821.1v24.35h16.77v4.12H792.72v-4.12h18.51Zm3.42-16a15.28,15.28,0,0,1,3,.29,9.84,9.84,0,0,1,2.44.84,5.17,5.17,0,0,1,1.62,1.24,2.24,2.24,0,0,1,.59,1.51,2.27,2.27,0,0,1-.59,1.5,5,5,0,0,1-1.62,1.25,9.84,9.84,0,0,1-2.44.84,15.45,15.45,0,0,1-6.06,0,9.56,9.56,0,0,1-2.44-.84,5.21,5.21,0,0,1-1.63-1.25,2.32,2.32,0,0,1-.59-1.5,2.28,2.28,0,0,1,.59-1.51,5.34,5.34,0,0,1,1.63-1.24,9.56,9.56,0,0,1,2.44-.84A15.13,15.13,0,0,1,814.65,254.92Z" transform="translate(10.6)"/><path class="c" d="M855.2,266.86h8.69l.39,4.59a40.15,40.15,0,0,1,4.77-2.45,33.41,33.41,0,0,1,4.52-1.58,29.61,29.61,0,0,1,4.51-.83,45.87,45.87,0,0,1,4.77-.24q8.68,0,13.15,2.59a8.47,8.47,0,0,1,4.46,7.81v18.58H890.7V277.15a5.48,5.48,0,0,0-2.47-4.95q-2.46-1.6-7.34-1.6a22.47,22.47,0,0,0-3.51.27,19.75,19.75,0,0,0-3.56.93,32.16,32.16,0,0,0-4,1.81c-1.44.75-3.06,1.7-4.85,2.83v18.89H855.2Z" transform="translate(10.6)"/><path class="c" d="M962.1,294.28a78.3,78.3,0,0,1-7.82,1.09c-2.68.24-5.44.35-8.28.35q-13.35,0-20.55-3.65t-7.21-10.69a10,10,0,0,1,2.07-6.13,17.09,17.09,0,0,1,5.84-4.71,34.3,34.3,0,0,1,9-3,57.62,57.62,0,0,1,11.5-1.06c2.92,0,5.64.1,8.19.31a62.75,62.75,0,0,1,7.29,1v4.71a52.91,52.91,0,0,0-7.43-1.4,66.38,66.38,0,0,0-7.83-.44,33.54,33.54,0,0,0-7.09.72,22.29,22.29,0,0,0-5.86,2.08,12,12,0,0,0-4,3.32,7.19,7.19,0,0,0-1.46,4.43q0,5.16,5,7.72t13.77,2.57a62.27,62.27,0,0,0,7.71-.46,53.44,53.44,0,0,0,7.21-1.36Z" transform="translate(10.6)"/><path class="c" d="M1029.07,279.59c0,.7,0,1.29-.06,1.76a13,13,0,0,1-.17,1.33H989.3q0,4.36,4.82,6.71t13.91,2.34c1.65,0,3.29,0,4.94-.1s3.23-.16,4.77-.27,3-.24,4.4-.39,2.7-.29,3.9-.46v4.05q-4,.57-9,.92t-10.41.36a67.78,67.78,0,0,1-12.45-1,28.48,28.48,0,0,1-8.55-2.88,12.83,12.83,0,0,1-4.94-4.63,12.07,12.07,0,0,1-1.6-6.19,10.4,10.4,0,0,1,1.71-5.69,15.49,15.49,0,0,1,5-4.71,28.22,28.22,0,0,1,8-3.21,44.54,44.54,0,0,1,10.83-1.19,52.41,52.41,0,0,1,10.43.93,27.33,27.33,0,0,1,7.66,2.65,13.06,13.06,0,0,1,4.71,4.17A9.91,9.91,0,0,1,1029.07,279.59Zm-10.15-.71a5.87,5.87,0,0,0-.73-3.47,7.62,7.62,0,0,0-2.78-2.71,15.56,15.56,0,0,0-4.68-1.77,29.28,29.28,0,0,0-6.51-.64,25.62,25.62,0,0,0-5.83.62,16.23,16.23,0,0,0-4.55,1.76,10.34,10.34,0,0,0-3.08,2.72,7.64,7.64,0,0,0-1.46,3.49Z" transform="translate(10.6)"/><path class="c" d="M1155.37,295.33h-48.29V290.9l19-9.52c3.1-1.55,5.63-2.9,7.57-4a30.57,30.57,0,0,0,4.54-3.11,8,8,0,0,0,2.19-2.65,6.55,6.55,0,0,0,.56-2.69,5,5,0,0,0-.73-2.6,6.49,6.49,0,0,0-2.24-2.17,12.93,12.93,0,0,0-3.93-1.47,26.69,26.69,0,0,0-5.77-.54,31.84,31.84,0,0,0-8.47,1.05,35.36,35.36,0,0,0-7,2.72l-5.39-3.26a41.17,41.17,0,0,1,9.57-3.54,52.83,52.83,0,0,1,12.59-1.34,49.53,49.53,0,0,1,8.89.74,27.53,27.53,0,0,1,6.92,2.13,12.45,12.45,0,0,1,4.52,3.4,7.15,7.15,0,0,1,1.6,4.54,7.44,7.44,0,0,1-1.12,3.94,14.66,14.66,0,0,1-3.4,3.62,42.49,42.49,0,0,1-5.72,3.72q-3.45,1.94-8.16,4.23l-13.29,6.55h35.61Z" transform="translate(10.6)"/><path class="c" d="M1220.21,276.81a17.75,17.75,0,0,1-1.68,7.76,16.23,16.23,0,0,1-5.11,6,25.59,25.59,0,0,1-8.5,3.88,45.64,45.64,0,0,1-11.91,1.38,47.88,47.88,0,0,1-10.72-1.12,24.4,24.4,0,0,1-8.24-3.45,15.77,15.77,0,0,1-5.27-5.92,18.42,18.42,0,0,1-1.85-8.54,17.5,17.5,0,0,1,1.71-7.77,16.46,16.46,0,0,1,5.1-6,25,25,0,0,1,8.5-3.88,45.75,45.75,0,0,1,11.89-1.38,47.85,47.85,0,0,1,10.71,1.12,24.13,24.13,0,0,1,8.24,3.46,15.93,15.93,0,0,1,5.28,5.94A18.52,18.52,0,0,1,1220.21,276.81Zm-43.41-.17c0,.59,0,1.17,0,1.76a9.51,9.51,0,0,0,.19,1.7l31-11.6a11.55,11.55,0,0,0-2.13-2.64,12.59,12.59,0,0,0-3.09-2.05,17.69,17.69,0,0,0-4.09-1.35,25.44,25.44,0,0,0-5.16-.48,24.16,24.16,0,0,0-6.93.93,14.67,14.67,0,0,0-5.3,2.8,12.4,12.4,0,0,0-3.37,4.59A16,16,0,0,0,1176.8,276.64Zm33.54.34a13.53,13.53,0,0,0-.14-1.91c-.1-.64-.2-1.26-.31-1.86l-31,11.65a11.85,11.85,0,0,0,5.25,4.87,17.88,17.88,0,0,0,4.15,1.39,25.57,25.57,0,0,0,5.3.49,24.09,24.09,0,0,0,6.92-.93,14.71,14.71,0,0,0,5.3-2.78,12.28,12.28,0,0,0,3.37-4.58A16,16,0,0,0,1210.34,277Z" transform="translate(10.6)"/><path class="c" d="M1281.06,295.33h-46v-4.6h18.85V263.68l-17.56,4.82-3.59-4.2,23.34-6.21h8.63v32.64h16.38Z" transform="translate(10.6)"/><path class="c" d="M1344.83,286a5.62,5.62,0,0,1-1.91,4.18,15.14,15.14,0,0,1-5.32,3.08,40.42,40.42,0,0,1-8.08,1.9,80.64,80.64,0,0,1-20.67,0,35.52,35.52,0,0,1-7.65-1.9,12.9,12.9,0,0,1-4.66-2.89,5.28,5.28,0,0,1-1.57-3.69q0-3.4,3.76-5.87t11.61-4.48q-7.18-1.84-10.49-4.1t-3.31-5.18a5.26,5.26,0,0,1,1.46-3.46,12.5,12.5,0,0,1,4.4-3,32.22,32.22,0,0,1,7.38-2.09,60.89,60.89,0,0,1,10.43-.78,72.73,72.73,0,0,1,10,.61,32.72,32.72,0,0,1,7.2,1.75,11.26,11.26,0,0,1,4.38,2.75,5.27,5.27,0,0,1,1.46,3.6c0,2.15-1.19,4-3.57,5.5a35.9,35.9,0,0,1-10.12,4c2.17.55,4.19,1.15,6.06,1.82a27.82,27.82,0,0,1,4.88,2.21,10.92,10.92,0,0,1,3.22,2.72A5.36,5.36,0,0,1,1344.83,286Zm-10.6.36a3.59,3.59,0,0,0-.67-2,6.9,6.9,0,0,0-2.41-2,27,27,0,0,0-4.66-1.93c-1.94-.64-4.41-1.31-7.4-2-2.55.63-4.68,1.25-6.42,1.86a25,25,0,0,0-4.21,1.87,6.9,6.9,0,0,0-2.27,2,3.84,3.84,0,0,0-.67,2.16,2.94,2.94,0,0,0,1.09,2.25,9,9,0,0,0,3,1.66,21.71,21.71,0,0,0,4.54,1,44.33,44.33,0,0,0,5.72.34,47.44,47.44,0,0,0,5.61-.31,23.3,23.3,0,0,0,4.57-.95,8.79,8.79,0,0,0,3.06-1.62A3,3,0,0,0,1334.23,286.39Zm-1-19.53q0-2.53-3.5-3.76a40.09,40.09,0,0,0-19.63,0q-3.51,1.23-3.51,3.66a3,3,0,0,0,.84,2,8,8,0,0,0,2.61,1.76,33.23,33.23,0,0,0,4.4,1.62q2.64.79,6.28,1.62a42.37,42.37,0,0,0,9.43-3.14Q1333.22,269,1333.22,266.86Z" transform="translate(10.6)"/></g><g class="b"><path class="d" d="M16.23,181l73.42,3.24q0,3.39,3.63,5.11t11.75,3a157.78,157.78,0,0,0,22.17,1.21q22,0,35.38-2.65,9.93-2.06,16.23-6.62,3.87-2.86,9.93-12.51l2.43-3.68a303.1,303.1,0,0,1-74.63,9.13q-37.8,0-62-8.1T30.29,145.36q0-13.76,16.47-25.24T93,102.76a312.66,312.66,0,0,1,60.81-5.89,249,249,0,0,1,47,4.12q21.31,4.13,33.19,11.55l9.69-13.83h65.18l-44.58,65.12q-10.9,15.67-18.42,22.37a59.6,59.6,0,0,1-17.2,10.67,124.64,124.64,0,0,1-24.47,6.66,297.27,297.27,0,0,1-34.89,3.86q-20.12,1.17-43.61,1.18-54.52,0-82.38-5.67T15.51,184.06A8,8,0,0,1,16.23,181Zm81.9-37.74q0,8.9,13.2,13.57t33.07,4.67a147.14,147.14,0,0,0,35.26-4.19q17.07-4.2,26.16-11.92t9.09-14.94q0-8.31-14.78-13.39T166,112a124,124,0,0,0-34.29,4.48q-15.62,4.5-25.8,13.84Q98.13,137.48,98.13,143.23Z" transform="translate(10.6)"/><path class="d" d="M376.27,98.71h69.54L414.07,145c-3.87,5.55-5.81,9-5.81,10.38q0,3.38,8.23,5.81t21.08,2.43a154.07,154.07,0,0,0,18.18-1.07,173.5,173.5,0,0,0,18.41-3.24,135.85,135.85,0,0,0,17-5A63.14,63.14,0,0,0,505.17,147q4.6-3.39,9.94-11l25.68-37.23h69.54l-53.79,78.14H491.6l7.27-10.59q-42.64,12.44-92.79,12.43-31.75,0-49.91-5.52T338,158.38q0-4,8.24-16.11Z" transform="translate(10.6)"/><path class="d" d="M677.68,98.71H743.1l-6.54,9.49A282.08,282.08,0,0,1,817,96.87q29.07,0,44.82,3.68t20.11,10.15q13.32-5.88,38.28-9.85a329.3,329.3,0,0,1,51.85-4q30.78,0,48,5t17.2,13.24q0,4-6.78,14l-33,47.75H928l32.95-47.75q6.06-9,6.06-10.15c0-2.16-2.15-3.87-6.43-5.12S949.85,112,941.29,112q-25.92,0-46.27,8.31-14.79,6-25.2,21.12l-24.47,35.46H775.81l32.47-47.24q5.57-8.16,5.57-10.59,0-3.09-6.91-5.08t-19-2a139.47,139.47,0,0,0-23.5,2.06,105.79,105.79,0,0,0-21.2,5.66A54.5,54.5,0,0,0,727.59,129q-2.9,2.66-9.45,12l-24.71,35.9H623.89Z" transform="translate(10.6)"/><path class="d" d="M1118.89,98.71h65.9l-5.57,8a328.75,328.75,0,0,1,39.49-7.58,322.07,322.07,0,0,1,39.5-2.28q40.45,0,65,8.46t24.59,25.24q0,21.12-42.4,35.69-36.35,12.44-86,12.43-51.12,0-77.29-12.58l-27.86,40.54h-69.54Zm41.92,44.81q0,9.12,14.66,14.17t34.52,5a143.86,143.86,0,0,0,33.2-3.79q16-3.8,26.53-12.59t10.54-16.29q0-8.76-13.81-13.43T1231.31,112a142.22,142.22,0,0,0-36.22,4.3q-16.35,4.3-25.32,12.66T1160.81,143.52Z" transform="translate(10.6)"/><path class="d" d="M1386.38,156.47h68.81l-14,20.38h-68.81Z" transform="translate(10.6)"/><path class="d" d="M1561.55,98.71h69.54L1599.35,145c-3.88,5.55-5.81,9-5.81,10.38q0,3.38,8.23,5.81t21.08,2.43a153.77,153.77,0,0,0,18.17-1.07,173.23,173.23,0,0,0,18.42-3.24,135.85,135.85,0,0,0,17-5,63.14,63.14,0,0,0,14-7.36q4.6-3.39,9.93-11l25.69-37.23h69.53l-53.78,78.14h-64.94l7.27-10.59q-42.64,12.44-92.8,12.43-31.74,0-49.91-5.52t-18.17-14.79q0-4,8.24-16.11Z" transform="translate(10.6)"/><path class="d" d="M1802.39,155l67.36-3.24q9,6.48,22.29,9.16t36.34,2.69q23.74,0,38-3.24,9.93-2.2,9.93-5.37c0-1.42-1.69-2.7-5.09-3.83s-13.16-2.4-28.83-4q-63-6.33-78-10-23.51-5.73-23.51-15t22.78-16q31.74-9.34,94.25-9.35,49.66,0,75.11,5.52t32.22,14.94l-64.2,3.38q-5.1-4.26-16.48-6.4-15.51-2.86-37.31-2.87t-31.38,2.21q-9.57,2.2-9.57,5.08t9.69,4.85q6.06,1.19,39,4.12,50.88,4.48,68.08,8.83,24.23,6.1,24.23,14.72,0,11.1-30.77,19.27t-86.74,8.17q-55.72,0-86.13-6.22T1802.39,155Z" transform="translate(10.6)"/></g><rect x="1951.2" y="0.5" width="139.1" height="362.3"/><rect x="10.6" y="0.5" width="129.3" height="362.3"/></svg>