<svg xmlns="http://www.w3.org/2000/svg" width="1142" height="320" viewBox="0 0 1142 320"><path d="M.62,241l62.93,9.27q0,9.71,3.11,14.66t10.08,8.43q6.95,3.48,19,3.48,18.89,0,30.32-7.59,8.5-5.91,13.91-19,3.33-8.22,8.52-35.83l2.07-10.54Q119.62,230,86.6,230q-32.4,0-53.16-23.19T12.67,138.92q0-39.42,14.12-72.31T66.46,16.86Q92,0,118.58,0a72.72,72.72,0,0,1,40.29,11.81q18.27,11.81,28.45,33.09l8.31-39.63h55.86L213.28,191.83q-9.34,44.91-15.78,64.09t-14.75,30.56a71.74,71.74,0,0,1-21,19.08,90.8,90.8,0,0,1-29.91,11.07A195.44,195.44,0,0,1,94.49,320q-46.72,0-70.61-16.23T0,249.8A70.83,70.83,0,0,1,.62,241Zm70.2-108.14q0,25.5,11.31,38.89t28.35,13.39q15.58,0,30.22-12t22.43-34.15q7.78-22.14,7.79-42.79,0-23.82-12.67-38.37T129,43.21q-16,0-29.39,12.86T77.46,95.71Q70.82,116.37,70.82,132.81Z"/><path d="M309.23,5.27h59.6l-27.21,132.6q-5,23.82-5,29.72a22.55,22.55,0,0,0,7.06,16.65q7.07,7,18.07,7a41.75,41.75,0,0,0,15.57-3.06,66.73,66.73,0,0,0,15.79-9.27,85.05,85.05,0,0,0,14.53-14.23q6.43-8,12-21.08,3.94-9.69,8.51-31.62l22-106.67h59.6l-46.1,223.87H408.08l6.23-30.35q-36.56,35.63-79.54,35.62-27.21,0-42.78-15.81t-15.58-42.37q0-11.59,7.07-46.16Z"/><path d="M567.57,5.27h56.08L618,32.46Q650.85,0,687,0q24.91,0,38.42,10.54t17.23,29.09q11.43-16.86,32.82-28.25A93.34,93.34,0,0,1,819.9,0Q846.27,0,861,14.33t14.74,38q0,11.6-5.81,40.05L841.7,229.14H782.1L810.35,92.33q5.17-25.71,5.19-29.09,0-9.27-5.51-14.65t-16.51-5.38q-22.21,0-39.66,23.83-12.68,17.07-21.6,60.5l-21,101.6h-59.6L679.51,93.81q4.77-23.4,4.78-30.36a19.31,19.31,0,0,0-5.92-14.54q-5.93-5.7-16.3-5.7-9.77,0-20.15,5.91a59.62,59.62,0,0,0-18.17,16.23Q616,75.69,610.35,91.91q-2.49,7.59-8.09,34.36L581.07,229.14h-59.6Z"/><path d="M945.75,5.27h56.49l-4.78,23q18.06-15.18,33.85-21.71A87.55,87.55,0,0,1,1065.16,0q34.68,0,55.76,24.24T1142,96.55q0,60.49-36.34,102.24-31.15,35.63-73.73,35.62-43.82,0-66.24-36L941.8,314.52H882.2Zm35.93,128.38q0,26.15,12.56,40.58t29.59,14.44q14.75,0,28.46-10.86t22.74-36q9-25.2,9-46.7,0-25.08-11.84-38.47t-30.11-13.39q-17,0-31,12.34t-21.7,36.26Q981.68,115.74,981.68,133.65Z"/><path d="M625.7,269.52h11.65l-1.87,9q6.53-10,14.13-10a14.48,14.48,0,0,1,5.78,1.35L650.61,280a10.73,10.73,0,0,0-3.61-.61,11.13,11.13,0,0,0-6.54,2.44,16.32,16.32,0,0,0-5.2,6.5,65.29,65.29,0,0,0-3.69,12.88l-3,14.48H616.05Z"/><path d="M696.34,296.47H665c0,.49,0,.87,0,1.13a10.43,10.43,0,0,0,2.63,7.43,8.44,8.44,0,0,0,6.41,2.83q6.21,0,9.69-6.44l11.17,1.87a23.56,23.56,0,0,1-8.71,10.11A22.89,22.89,0,0,1,674,316.77q-9.3,0-15.13-5.89T653,295.29a28.32,28.32,0,0,1,5.26-16.86q7.17-10,20.47-10,8.47,0,13.48,5.24t5,14.67A34.83,34.83,0,0,1,696.34,296.47Zm-10.52-7.61c0-.55,0-1,0-1.26q0-5.13-2.3-7.69a7.9,7.9,0,0,0-6.17-2.57,9.83,9.83,0,0,0-6.94,2.91c-2,1.95-3.43,4.81-4.15,8.61Z"/><path d="M732.2,298.29l12.13,2a25.58,25.58,0,0,1-8.87,12.3,22.73,22.73,0,0,1-13.61,4.22q-8.82,0-14-5.26T702.68,297a33.23,33.23,0,0,1,3.13-14.21,24,24,0,0,1,9.44-10.54,26,26,0,0,1,13.82-3.85q8.17,0,13,4.26a16.21,16.21,0,0,1,5.48,11.21l-11.87,1.27a9,9,0,0,0-2.37-5.7,7.06,7.06,0,0,0-5.06-1.82,10.13,10.13,0,0,0-6.74,2.69,17,17,0,0,0-4.8,8.06,33.83,33.83,0,0,0-1.68,10.07,9.11,9.11,0,0,0,2,6.3,6.45,6.45,0,0,0,5,2.22,9.27,9.27,0,0,0,5.78-2.18A14,14,0,0,0,732.2,298.29Z"/><path d="M763.06,315.68H750.59L763.93,252h12.48l-4.79,22.69a32.58,32.58,0,0,1,7.87-4.76,21,21,0,0,1,7.83-1.46q5.59,0,8.86,3.22a11.28,11.28,0,0,1,3.26,8.43,47.08,47.08,0,0,1-1.21,8.61l-5.65,27H780.1l5.78-27.52a38.68,38.68,0,0,0,.91-5.73,4.9,4.9,0,0,0-1.43-3.7,5.37,5.37,0,0,0-3.91-1.39,9.84,9.84,0,0,0-6,2.17,18.86,18.86,0,0,0-5.69,7.05q-1.1,2.29-2.87,10.82Z"/><path d="M807.92,278.78l1.91-9.26h6.09l1.52-7.39,14.3-8.61-3.35,16H836l-1.91,9.26h-7.65l-4.05,19.34q-1.08,5.26-1.08,6a2.84,2.84,0,0,0,.91,2.24,5.13,5.13,0,0,0,3.3.8c.55,0,1.93-.1,4.13-.3l-1.95,9.25a32.86,32.86,0,0,1-6.61.66q-6.6,0-9.61-2.55a8.75,8.75,0,0,1-3-7.06,66.49,66.49,0,0,1,1.61-9.82L814,278.78Z"/></svg>